<svg xmlns="http://www.w3.org/2000/svg" viewBox="180 340 250 160">
  <path fill="#FFFFFF" d="M214.6 461.9V354.7c0-1.8-1.4-3.2-3.2-3.2h-21.8c-1.8 0-3.2 1.4-3.2 3.2v107.2c0 1.8 1.4 3.2 3.2 3.2h21.8c1.8 0 3.2-1.4 3.2-3.2zm32.9-66.6v-17.2c0-1-.8-1.9-1.9-1.9h-24.4c-1 0-1.9.8-1.9 1.9v17.2c0 1 .8 1.9 1.9 1.9h24.4c1.1 0 1.9-.9 1.9-1.9zm0 66.6v-56.8c0-1.8-1.4-3.2-3.2-3.2h-21.8c-1.8 0-3.2 1.4-3.2 3.2v56.8c0 1.8 1.4 3.2 3.2 3.2h21.8c1.8 0 3.2-1.4 3.2-3.2zm39.1-20c0 1-.8 1.9-1.9 1.9h-5.6c-1 0-1.9-.8-1.9-1.9v-24.4c0-1 .8-1.9 1.9-1.9h5.6c1 0 1.9.8 1.9 1.9v24.4zm25.4 20v-56.8c0-1.8-1.4-3.2-3.2-3.2h-53.7c-1.8 0-3.2 1.4-3.2 3.2v56.8c0 1.8 1.4 3.2 3.2 3.2h53.7c1.8 0 3.2-1.4 3.2-3.2zm38.6-10.7c0 1-.8 1.9-1.9 1.9h-5.6c-1 0-1.9-.8-1.9-1.9v-24.4c0-1 .8-1.9 1.9-1.9h5.6c1 0 1.9.8 1.9 1.9v24.4zm25.4 10.7v-107.1c0-1.8-1.4-3.2-3.2-3.2h-22.1c-1.8 0-3.2 1.4-3.2 3.2v47.1h-28.3c-1.8 0-3.2 1.4-3.2 3.2v56.8c0 1.8 1.4 3.2 3.2 3.2h53.6c1.8 0 3.2-1.4 3.2-3.2zm32.8-66.6v-17.2c0-1-.8-1.9-1.9-1.9h-24.4c-1 0-1.9.8-1.9 1.9v17.2c0 1 .8 1.9 1.9 1.9h24.4c1.1 0 1.9-.9 1.9-1.9zm0 91.9v-84.1c0-1-.8-1.9-1.9-1.9h-24.4c-1 0-1.9.8-1.9 1.9v84.1c0 1.8 1.4 3.2 3.2 3.2h21.8c1.8 0 3.2-1.4 3.2-3.2z"></path>
</svg>